<svg xmlns="http://www.w3.org/2000/svg" width="771.129" height="190.75" viewBox="0 0 771.129 190.75">
  <defs>
    <style>
      .cls-1 {
        fill: #47d6b6;
        fill-rule: evenodd;
      }
    </style>
  </defs>
  <path id="Shape_1_copy" data-name="Shape 1 copy" class="cls-1" d="M582.583,242.157q-1.389.792-2.776,1.589l-0.177.425,2.23,3.873q-3.7,2.131-7.383,4.307c-0.069.122-.138,0.243-0.206,0.365l8.709,14.728h0.413q14.547-8.593,29.377-16.481,5.1,9.59,10.2,19.177l0.358,0.126q1.629-.865,3.261-1.723l14.12,26.9,0.42,0.094q1.491-.781,2.985-1.556,5.865,11.316,11.728,22.633l0.339,0.139q8.668-4.489,17.434-8.712c0.03-.118.061-0.236,0.092-0.354l-2.574-5.35q2.615-1.259,5.237-2.493c0.056-.129.112-0.259,0.169-0.388l-10.815-23.007-0.388-.049q-1.6.756-3.2,1.519-6.554-13.743-13.105-27.486l-0.324-.078q-1.67.8-3.337,1.6-3.4-7.042-6.809-14.085,1.427-.689,2.853-1.372,1.141-.468,2.282-0.932c6.233-1.355,10.256.021,12.077,4,0.087,0.19.174,0.381,0.262,0.571l0.353,0.145q9.644-4.425,19.382-8.561l0.129-.359-0.573-1.35a16.663,16.663,0,0,0-2.334-3.941q3.207-1.363,6.422-2.7l0.241-.326-0.293-.71c-2.771-6.706-9.051-11.149-19.036-13.023-7.45-.68-13.888.247-19.192,2.7q-8.973,4.07-17.867,8.381-20.582,10.234-40.678,21.762h0Zm0.009,7.158q2.4,4.176,4.81,8.352l0.414,0q14.588-8.393,29.446-16.086l0.445,0.084,9.849,19.045,0.326,0.067q1.574-.813,3.15-1.618,6.924,13.559,13.847,27.119l0.39,0.036q1.586-.808,3.173-1.609,5.749,11.415,11.5,22.829l0.339,0.142q4.59-2.31,9.205-4.547,1.036,2.136,2.071,4.274-7.354,3.564-14.642,7.317L645.15,291.872l-0.421-.1q-1.534.792-3.067,1.591l-13.985-26.812-0.434-.089q-1.636.855-3.27,1.719l-10.119-19.14-0.365-.123q-14.906,7.89-29.537,16.492-3.7-6.291-7.4-12.582,3.014-1.773,6.039-3.515h0Zm62.7-21.526c5.943-2.771,10.876-2.318,14.708,1.271q1.236,2.127,1.554,1.984,4.7-2.093,9.427-4.119,0.587-.174,2.664,3.8l0.027,0.064q-8.319,3.555-16.571,7.321a7.449,7.449,0,0,0-1.324-1.853c-4.3-3.409-9.092-3.9-14.289-1.419q-1.789.853-3.574,1.717l-2.067-4.276q4.712-2.278,9.445-4.488h0Zm32.181-30.706,1.641,4.083q-3.813,1.532-7.613,3.106l-0.25.331q7.4,17.838,14.795,35.675l0.394,0.064q1.645-.683,3.3-1.356l11.066,27.09,0.331,0.166q1.507-.615,3.017-1.223,4.995,12.407,9.991,24.813l0.394,0.143q8.962-3.606,18-6.943c0.066-.123.131-0.247,0.2-0.37q-1.014-2.752-2.029-5.5,2.622-.968,5.25-1.912l0.226-.3q-4.494-12.524-8.987-25.046l-0.378-.087q-1.617.581-3.231,1.17-5.015-13.744-10.03-27.491l-0.336-.174q-1.562.57-3.121,1.148l-0.313-.108-12.891-34.772-0.434-.137q-9.413,3.5-18.754,7.244l-0.23.393h0Zm2.187,5.444L691.3,231.5l0.4,0.067q1.587-.637,3.176-1.266l10.769,27.209,0.408,0.139q1.6-.633,3.206-1.258,4.867,12.495,9.736,24.989l0.3,0.109q4.923-1.915,9.869-3.754,0.791,2.128,1.58,4.256Q723,284.861,715.32,287.93q-4.949-12.387-9.9-24.775l-0.305-.1q-1.588.636-3.176,1.28l-11-27.117-0.42-.131q-1.653.672-3.305,1.352-6.875-16.693-13.75-33.387,3.095-1.275,6.2-2.521h0Zm42.468-16.214a30.222,30.222,0,0,1-4.89,5.714c-6.5,7.759-8.28,15.306-5.656,22.518q2.562,7.056,5.123,14.114l0.334,0.176q1.668-.6,3.338-1.2,4.861,13.616,9.724,27.23l0.375,0.088q1.489-.531,2.981-1.055l0.717,2.042A23.307,23.307,0,0,0,742,266.969c8.25,5.576,16.83,6.9,26.079,4.054a30.24,30.24,0,0,0,14.464-9.633c2.747-3.91,4.08-6.146,3.919-6.732,5.493-6.792,7.457-13.727,5.631-20.908-0.057-.225-0.165-0.318-0.321-0.278q-8.853,2.259-17.658,4.752a6.773,6.773,0,0,1-.582,5.031q-2.668.764-5.332,1.549l-0.23.359,0.3,1q0.111,0.8.224,1.609l-0.692.205q-0.952.173-1.9,0.349c-4.394-.138-7.08-1.71-8.032-4.78q-0.537-1.735-1.075-3.469l-0.316-.195q-1.635.507-3.268,1.022l-8.7-27.575-0.306-.123q-1.579.5-3.156,1l-0.328-.188-4.143-12.9q-0.076-.525-0.155-1.05-0.192-.6,1.378-1.1l1.819-.284c4.4-.264,7.059,1.147,7.984,4.173l0.225,0.734,0.308,0.125q9.963-3.049,19.991-5.812l0.358-.316a21.183,21.183,0,0,0-2.185-5.339l0.084-.022,0.147-.114q3.078-.847,6.162-1.67l0.428-.4c-1.3-4.9-4.461-8.938-9.565-12.03-7.673-4.267-16.126-5.058-25.109-2.3l-0.256.079a33.683,33.683,0,0,0-16.061,10.512h0Zm-4.458,7.782,0.166-.058c-1.576,4.631-1.705,8.726-.457,12.284l4.875,13.907,0.414,0.151q1.606-.562,3.215-1.117,4.713,13.666,9.427,27.334l0.3,0.118q1.621-.559,3.246-1.11,0.651,1.918,1.3,3.836a21.2,21.2,0,0,0,7.422,9.958c7.876,5.281,16.089,6.566,24.942,3.938a30.343,30.343,0,0,0,10.29-5.356l0.151-.042c-3.883,5.769-8.705,9.517-14.609,11.322q-0.819.251-1.638,0.5c-5.109,1.576-10.609,1.464-16.617-.309-7.094-2.877-11.685-7-13.618-12.546q-0.828-2.373-1.655-4.748l-0.4-.157q-1.571.549-3.141,1.105l-9.657-27.253-0.389-.085q-1.635.581-3.267,1.169-2.178-6.045-4.355-12.091c-2.528-7-1.253-13.946,4.053-20.753h0Zm25.476-3.086a14.339,14.339,0,0,1,3.711-.4,8.679,8.679,0,0,1,5.723,2.444,11.161,11.161,0,0,0,1.743,2.545q4.931-1.449,9.878-2.83,0.581-.162,1.98,3.581l0,0.652q-8.513,2.365-16.98,4.937L748.35,200.3c-2.895-3.206-6.716-4.085-11.408-2.589l-0.58.185a9.481,9.481,0,0,1,6.787-6.887h0Zm27.088,54.727q1.041-.3,2.082-0.6l0.039,0.134q-1.117.9-2.23,1.813-0.2-1.253.109-1.342h0Zm45.519-90.408q-1.524.3-3.047,0.608l-0.293.344,0.885,4.381q-4.064.822-8.122,1.687l-0.3.278q1.79,8.367,3.578,16.733l0.382,0.133q16.029-3.418,32.167-6.13l3.6,21.419,0.294,0.234q1.772-.3,3.545-0.585,2.44,14.993,4.882,29.985l0.361,0.225q1.619-.264,3.24-0.518L860.9,249.3l0.272,0.24q9.4-1.478,18.841-2.686l0.194-.306q-0.376-2.945-.754-5.889,2.816-.36,5.631-0.7l0.276-.314q-1.5-12.621-3-25.243l-0.345-.17q-1.723.206-3.444,0.42-1.881-15.109-3.761-30.217l-0.277-.177q-1.8.224-3.591,0.457-1.008-7.758-2.014-15.514,1.535-.2,3.071-0.392,1.2-.081,2.406-0.157c6.209,0.7,9.53,3.281,10,7.627l0.069,0.624,0.283,0.25q10.33-1.132,20.683-1.974l0.231-.3q-0.06-.732-0.119-1.462a16.979,16.979,0,0,0-.963-4.476q3.408-.279,6.819-0.527l0.326-.234c-0.019-.255-0.037-0.51-0.056-0.766-0.52-7.237-5.014-13.434-13.743-18.374-6.735-3-13.012-4.167-18.7-3.528q-9.594,1.006-19.17,2.254-22.236,3.129-44.307,7.554h0Zm-2.164,6.771q0.954,4.724,1.909,9.447l0.383,0.136q16.022-3.228,32.143-5.759l0.386,0.223q1.659,10.59,3.319,21.182l0.282,0.168q1.707-.267,3.414-0.525,2.281,15.053,4.562,30.106l0.351,0.159q1.716-.26,3.434-0.509l3.693,25.293,0.272,0.242q4.963-.721,9.935-1.371l0.615,4.709q-7.921,1.035-15.824,2.256-1.965-12.7-3.931-25.4l-0.36-.227q-1.665.258-3.329,0.524-2.393-14.93-4.784-29.86l-0.375-.222q-1.778.285-3.554,0.579-1.77-10.68-3.539-21.359l-0.3-.233q-16.212,2.69-32.325,6.092l-3.018-14.281q3.318-.7,6.642-1.372h0Zm64.68-.3c6.376-.738,10.83,1.256,13.3,5.875q0.5,2.407.837,2.374,5.022-.495,10.049-0.92,0.6,0.02,1.316,4.445c0,0.023,0,.046,0,0.07q-8.848.738-17.683,1.688a7.58,7.58,0,0,0-.663-2.176c-2.954-4.6-7.264-6.583-12.853-5.888q-1.923.239-3.846,0.488-0.306-2.353-.611-4.709Q873.192,162.385,878.272,161.8Zm47.459-14.21c-0.66.829-2.272,1.891-4.822,3.205-7.128,4.948-10.341,10.859-9.845,17.585q0.669,9.125,1.336,18.249l0.27,0.26q1.746-.128,3.493-0.246,0.982,14.459,1.966,28.917l0.339,0.257q1.6-.108,3.194-0.208,0.846,13.452,1.694,26.9l0.243,0.2q9.4-.588,18.818-0.913l0.3-.22q-0.1-2.931-.2-5.863,2.752-.095,5.506-0.165l0.3-.218q-0.342-13.369-.683-26.739l-0.328-.2q-1.694.043-3.387,0.1l-0.5-16.056q8.249-.253,16.5-0.319,0.087,10.931.173,21.859l0.322,0.277q1.64-.012,3.28-0.017,0.036,13.339.074,26.679l0.309,0.278q9.42-.022,18.839.219l0.315-.271q0.077-2.9.151-5.795,2.754,0.072,5.508.166l0.242-.271q0.457-13.227.914-26.453l-0.234-.218q-1.694-.057-3.387-0.107,0.428-14.522.854-29.041l-0.246-.217q-1.764-.051-3.527-0.094,0.216-8.935.433-17.873a16.418,16.418,0,0,0-3.585-10.486,24.924,24.924,0,0,0-20.4-9.479q-8.875.065-17.749,0.334a27.509,27.509,0,0,0-16.493,5.99h0Zm-4.463,4.863,0.174-.01c-1.892,3.515-2.733,6.625-2.566,9.319q0.567,9.132,1.135,18.263l0.269,0.263q1.677-.1,3.356-0.2l1.656,28.936,0.338,0.261q1.652-.095,3.3-0.18,0.7,13.461,1.4,26.921l0.321,0.194q5.115-.264,10.232-0.451l0.168,4.607q-8.048.293-16.088,0.778l-1.626-26.908-0.253-.195q-1.68.1-3.361,0.212l-1.9-28.99-0.264-.193q-1.75.115-3.5,0.239l-1.149-16.232c-0.473-6.636,2.259-12.217,8.354-16.634h0Zm22.91,5.09q7.09-.2,14.183-0.27a6.386,6.386,0,0,1,2.337.261c2.252,0.591,3.376,1.8,3.379,3.617q0.009,4.365.019,8.729-3.105.007-6.209,0.039-0.016-1.57-.032-3.142a3.109,3.109,0,0,0-.36-1.6,5.228,5.228,0,0,0-5.279-3.207q-6.791.121-13.578,0.365c-0.113-3.069,1.734-4.68,5.54-4.789h0Zm-5.144,6.243q6.26-.222,12.522-0.34c2.975-.054,4.479,1.188,4.51,3.7l0.036,2.793q-8.59.111-17.176,0.419l-0.225-6.282,0.333-.291h0Zm28.84,22.229-0.066,21.859,0.241,0.281q1.694,0,3.388.019-0.108,13.339-.217,26.678l0.308,0.282q5.043,0.042,10.086.161l-0.108,4.608q-7.976-.186-15.953-0.185,0-13.374,0-26.749l-0.241-.209q-1.683,0-3.366.01-0.058-10.93-.116-21.859l-0.332-.278q-9.054.053-18.1,0.33-0.071-2.3-.142-4.607Q955.559,185.975,967.874,186.012Zm42.116-38.044a29.852,29.852,0,0,1-6.59,3.494c-8.8,4.8-13.2,11.139-13.447,18.809l-0.489,15.008,0.24,0.287q1.749,0.058,3.5.124-0.546,14.447-1.091,28.892l0.312,0.222q1.558,0.06,3.117.126l-0.093,2.163a23.52,23.52,0,0,0,3.121,13.145c5.513,8.237,12.9,12.644,22.453,13.429a29.846,29.846,0,0,0,16.87-3.594c3.97-2.616,6.03-4.2,6.09-4.8,7.58-4.277,11.96-9.993,12.93-17.339,0.03-.23-0.04-0.357-0.2-0.377q-9.015-1.176-18.04-2.119a6.778,6.778,0,0,1-2.4,4.458q-2.73-.278-5.48-0.534c-0.11.082-.23,0.165-0.34,0.248-0.03.348-.07,0.695-0.1,1.043l-0.39,1.577-0.71-.065c-0.63-.128-1.25-0.255-1.88-0.381-3.99-1.755-5.88-4.209-5.63-7.414,0.1-1.206.2-2.413,0.29-3.62-0.07-.1-0.14-0.2-0.22-0.3-1.12-.09-2.25-0.177-3.38-0.261l2.16-28.833c-0.07-.076-0.15-0.152-0.23-0.228q-1.635-.121-3.27-0.236c-0.08-.1-0.16-0.2-0.23-0.3q0.465-6.757.94-13.516l0.24-1.033c0.03-.418.59-0.59,1.67-0.512,0.6,0.136,1.19.273,1.78,0.41,4.14,1.386,6.07,3.68,5.8,6.832l-0.06.766,0.24,0.23q10.275,0.857,20.55,2l0.45-.161a21.155,21.155,0,0,0-.05-5.767l0.09,0.009,0.18-.05q3.15,0.351,6.3.728l0.54-.216c0.61-5.035-.82-9.953-4.38-14.713-5.5-6.8-13-10.666-22.28-11.427l-0.26-.021a33.057,33.057,0,0,0-18.62,3.813h0Zm-6.95,5.573,0.17,0.009c-3.14,3.716-4.766,7.47-4.93,11.237q-0.319,7.362-.64,14.722l0.323,0.294q1.678,0.074,3.357.155-0.705,14.441-1.4,28.879c0.077,0.074.151,0.148,0.231,0.221,1.13,0.056,2.26.113,3.38,0.174l-0.21,4.045a21.3,21.3,0,0,0,3.15,12c5.28,7.824,12.35,12.059,21.47,12.9A29.9,29.9,0,0,0,1039.39,237c0.05,0.006.1,0.012,0.16,0.017-5.71,3.922-11.54,5.619-17.63,5.109l-1.69-.139c-5.28-.427-10.29-2.569-15.15-6.443-5.452-5.3-8.142-10.836-7.877-16.7q0.114-2.513.227-5.023l-0.307-.294q-1.643-.074-3.284-0.139L995,184.5l-0.325-.223q-1.71-.067-3.421-0.128l0.45-12.842c0.256-7.439,3.97-13.414,11.336-17.768h0Zm24.52,6.575a14.052,14.052,0,0,1,3.56,1,8.6,8.6,0,0,1,4.37,4.39,10.8,10.8,0,0,0,.67,3.008q5.07,0.479,10.14,1.027c0.4,0.043.57,1.4,0.5,4.059-0.08.2-.15,0.4-0.23,0.607q-8.73-.952-17.46-1.7c-0.06-.613-0.12-1.226-0.19-1.839-1.48-4.049-4.67-6.281-9.53-6.629l-0.6-.043a9.359,9.359,0,0,1,8.77-3.883h0Zm4.76,60.861c0.71,0.068,1.43.138,2.14,0.208,0,0.047-.01.093-0.01,0.139q-1.365.428-2.73,0.859,0.285-1.237.6-1.206h0Zm80.92-66.106c-1.01-.2-2.03-0.393-3.05-0.586-0.13.069-.26,0.139-0.4,0.208-0.27,1.464-.55,2.928-0.83,4.392q-4.065-.772-8.15-1.5c-0.13.048-.26,0.1-0.38,0.144l-3,16.846,0.3,0.267q16.11,2.874,32.12,6.454-2.37,10.6-4.75,21.2c0.07,0.109.13,0.218,0.19,0.327q1.755,0.394,3.51.8-3.39,14.805-6.79,29.611c0.08,0.115.17,0.23,0.25,0.344q1.6,0.369,3.21.745-2.925,12.408-5.83,24.817c0.05,0.108.11,0.216,0.16,0.325q9.3,2.185,18.55,4.64c0.1-.071.2-0.141,0.29-0.211l1.53-5.737q2.76,0.732,5.51,1.489c0.13-.062.25-0.124,0.38-0.186q3.375-12.255,6.74-24.51c-0.08-.1-0.17-0.193-0.25-0.289-1.13-.308-2.25-0.614-3.37-0.916l7.92-29.4c-0.06-.089-0.13-0.179-0.19-0.268-1.17-.316-2.35-0.628-3.52-0.938l3.99-15.127c1,0.265,2.01.532,3.01,0.8,0.77,0.254,1.53.509,2.3,0.766,5.53,3,7.65,6.651,6.45,10.855-0.06.2-.12,0.4-0.17,0.6,0.05,0.113.11,0.226,0.17,0.339q10.065,2.871,20.07,6.033l0.33-.189c0.15-.466.29-0.932,0.44-1.4a16.656,16.656,0,0,0,.79-4.51q3.3,1.04,6.59,2.11l0.39-.092,0.24-.731c2.25-6.9.39-14.348-5.91-22.241-5.15-5.342-10.58-8.8-16.12-10.369q-9.345-2.708-18.72-5.176-21.885-5.517-44-9.735h0Zm-4.55,5.455-1.8,9.469,0.3,0.271q16.05,3.048,31.99,6.795c0.09,0.117.19,0.234,0.28,0.351l-4.92,20.87c0.06,0.087.13,0.174,0.2,0.262,1.12,0.265,2.25.533,3.37,0.8l-7.14,29.6,0.27,0.279q1.695,0.41,3.39.827-3.06,12.408-6.13,24.817c0.06,0.109.11,0.218,0.16,0.327q4.89,1.209,9.77,2.49c-0.4,1.531-.8,3.062-1.21,4.593q-7.77-2.041-15.57-3.9l5.94-25c-0.09-.116-0.17-0.231-0.25-0.347-1.1-.26-2.2-0.517-3.29-0.771q3.42-14.73,6.83-29.458c-0.08-.116-0.17-0.232-0.26-0.348-1.17-.272-2.35-0.54-3.52-0.806q2.385-10.559,4.78-21.116c-0.06-.11-0.13-0.22-0.19-0.33q-16.08-3.63-32.26-6.549,1.3-7.182,2.59-14.364Q1105.365,159.7,1108.69,160.326Zm60.21,24.161c6.23,1.735,9.63,5.273,10.19,10.486q-0.45,2.418-.12,2.515c3.26,0.967,6.5,1.957,9.75,2.97,0.36,0.165.22,1.7-.46,4.615a0.172,0.172,0,0,1-.02.067q-8.55-2.685-17.16-5.158a7.465,7.465,0,0,0,.2-2.267c-1.01-5.376-4.29-8.85-9.76-10.324-1.25-.339-2.51-0.673-3.77-1,0.41-1.53.81-3.061,1.22-4.592q4.965,1.313,9.93,2.693h0Zm48.04,5.567a29.849,29.849,0,0,0-6.84,1.127c-6.91,2.24-11.2,6.177-12.98,11.663l-5.7,17.534,0.15,0.344c1.04,0.339,2.09.681,3.13,1.025,0.05,0.093.11,0.186,0.17,0.279q-4.605,13.923-9.22,27.847c0.08,0.122.15,0.245,0.22,0.367,1.03,0.339,2.05.681,3.07,1.025l-1.2,3.575a30.722,30.722,0,0,0-1.57,6.4,19.988,19.988,0,0,0,3.5,12.944c2.56,4.6,7.44,8.18,14.68,10.927q5.01,1.9,9.98,3.876c5.57,2.215,10.2,3.087,13.96,2.549a22.858,22.858,0,0,0,10.01-3.078c7.6-1.51,12.79-5.092,15.44-10.95,0.89-1.972,1.79-3.945,2.68-5.918-0.04-.119-0.07-0.237-0.11-0.356-1.05-.475-2.1-0.948-3.16-1.417l12.06-27.045c-0.07-.111-0.15-0.221-0.22-0.332l-3.14-1.389,6.24-14.192c2.12-4.815,2.71-9.083,1.74-12.806a26.39,26.39,0,0,0-15.97-17.2q-8.715-3.5-17.49-6.78a27.345,27.345,0,0,0-19.43-.021h0Zm-4.13,2.2a17.093,17.093,0,0,0-6,7.844q-2.895,8.6-5.81,17.2c0.06,0.115.11,0.231,0.16,0.346,1.07,0.363,2.14.729,3.22,1.1l-9.57,27.878c0.06,0.093.11,0.185,0.17,0.278q1.62,0.556,3.24,1.122c-0.68,1.956-1.37,3.913-2.05,5.869a19.083,19.083,0,0,0,1.78,16.563c2.75,4.853,7.44,8.514,14.15,11.125q5.7,2.217,11.36,4.541a28.309,28.309,0,0,0,10.28,2.5c0.09,0.041.19,0.083,0.29,0.125a23.414,23.414,0,0,1-16.7-.285q-7.635-3.072-15.33-5.949a23.3,23.3,0,0,1-9.88-7.461c-4.2-5.876-5.43-11.608-3.51-17.257l2.4-7.077c-0.05-.114-0.09-0.228-0.14-0.343-1.08-.364-2.15-0.726-3.23-1.085q4.695-14.046,9.38-28.09l-0.18-.279c-1.12-.374-2.24-0.746-3.37-1.114q2.565-7.8,5.12-15.6c2.06-6.323,6.77-10.364,14.22-11.952h0Zm19.66,13.517q6.945,2.616,13.85,5.371,0.885,0.392,1.77.785c2.21,1.591,2.91,3.342,2.14,5.237l-6.54,16.037,0.21,0.388c1.11,0.453,2.21.909,3.32,1.368l-11.28,27.228,0.15,0.288q1.515,0.628,3.03,1.266c-0.96,2.275-1.91,4.55-2.87,6.825a4.492,4.492,0,0,1-5.47,1.125l-1.2-.493q1.065-2.616,2.15-5.234l-0.12-.351q-1.59-.649-3.18-1.291l11.1-27.455-0.24-.322c-1.07-.434-2.15-0.866-3.23-1.3q3.315-8.339,6.64-16.676a5.941,5.941,0,0,0-4.19-5.551q-6.63-2.582-13.31-5.033c0.04-.088.07-0.175,0.1-0.263,0.99-2.708,3.39-3.375,7.17-1.953h0Zm-7.53,3.682q6.255,2.3,12.47,4.713c0.63,0.317,1.25.636,1.87,0.955,1.41,1.2,1.83,2.5,1.28,3.88q-3.285,8.346-6.59,16.693c0.04,0.118.09,0.235,0.13,0.353,1.1,0.437,2.21.876,3.31,1.318q-5.505,13.709-11,27.418c0.06,0.126.13,0.253,0.19,0.38q1.545,0.623,3.09,1.251l-1.68,4.14q-5.73-2.334-11.49-4.562c-2.74-1.408-3.72-3.145-2.93-5.237l2.28-6.007c-0.04-.117-0.09-0.233-0.13-0.349-1.07-.406-2.15-0.809-3.22-1.21q5.175-13.872,10.36-27.743c-0.09-.1-0.17-0.21-0.25-0.315-1.09-.408-2.18-0.812-3.28-1.214l5.28-14.357C1224.73,209.522,1224.84,209.487,1224.94,209.451Zm69.81,12.4a28.35,28.35,0,0,0-7.07.3c-7.16,1.445-11.88,4.878-14.25,10.138q-3.795,8.4-7.58,16.806l0.12,0.36c1,0.456,2.01.914,3.02,1.375,0.05,0.1.1,0.2,0.14,0.3q-5.985,13.085-11.96,26.167l0.18,0.39q1.485,0.681,2.97,1.37c-0.61,1.31-1.22,2.619-1.82,3.928a34.425,34.425,0,0,0-2.5,6.924c-0.37,5.888.65,10.558,3.07,14.048,2.2,4.211,6.53,7.894,13,11.2q15.615,7.984,30.9,16.835l0.31-.062,2.94-5.076q2.505,1.449,4.99,2.921l0.32-.058q3.99-6.762,8-13.525c-0.04-.1-0.07-0.2-0.11-0.306q-16.395-9.69-33.18-18.409c-2.6-1.718-3.39-3.581-2.36-5.615l3.21-6.281c-0.06-.112-0.13-0.225-0.2-0.337-1.03-.528-2.07-1.053-3.1-1.576q2.88-5.706,5.75-11.411,17.25,8.7,34.13,18.384l0.33-.055q1.455-2.542,2.92-5.087,2.64,1.515,5.26,3.054l0.41-.008q2.52-4.308,5.05-8.616c-0.07-.119-0.13-0.237-0.2-0.356-1.03-.6-2.05-1.2-3.08-1.8q4.56-7.887,9.13-15.774c2.03-3.5,2.47-7.7,1.23-12.585a27.152,27.152,0,0,0-13.64-16.561q-8.385-4.493-16.84-8.767a27.806,27.806,0,0,0-19.49-2.241h0Zm-4.43,1.616a16.981,16.981,0,0,0-6.85,7.127l-7.68,16.531c0.05,0.1.1,0.2,0.14,0.3q1.56,0.726,3.12,1.459-6.195,13.143-12.38,26.286l0.18,0.393q1.53,0.723,3.06,1.452L1267.06,283c-2.59,5.424-2.52,11.015.06,16.791,2.2,5.123,6.52,9.305,13.03,12.7q12.375,6.468,24.54,13.477-1.11,1.937-2.23,3.873-15.915-9.173-32.2-17.409a23.779,23.779,0,0,1-9.24-8.314c-3.84-6.51-4.57-12.506-1.99-18.039l3.45-7.4c-0.04-.1-0.09-0.2-0.13-0.294-1.04-.486-2.08-0.969-3.13-1.449l12.15-26.39c-0.04-.1-0.09-0.2-0.14-0.3-1.09-.5-2.17-1-3.26-1.491l6.78-14.944c2.75-6.059,7.91-9.57,15.57-10.346h0Zm18.37,15.746q6.54,3.321,13.03,6.776c3.72,1.986,4.87,4.291,3.47,6.865q-2.76,5.063-5.5,10.125-2.88-1.563-5.77-3.1,1.815-3.391,3.61-6.783a5.951,5.951,0,0,0-3.54-5.97q-6.42-3.357-12.9-6.582l0.09-.187c1.3-2.626,3.81-3.024,7.51-1.145h0Zm-7.94,2.8q6.03,3,12.02,6.125c0.34,0.232.68,0.464,1.03,0.7,1.77,0.927,2.3,2.448,1.59,4.546-1,1.893-2.01,3.786-3.01,5.679q-8.13-4.3-16.33-8.388l4.26-8.565c0.15-.031.29-0.063,0.44-0.093h0Zm24.61,42.59q-1.155,2-2.29,4-16.26-9.285-32.87-17.661,1.05-2.058,2.08-4.116,16.71,8.43,33.08,17.774h0ZM865.938,299.057h1.7L865.7,286.532h-1.411l-7.019,12.525h1.686l1.746-3.226h4.8Zm-1.445-10.228,0.052,0.017,0.757,5.566h-3.828Zm25.13,8.152a4.748,4.748,0,0,1-.12-2.4l0.06-.36a5.365,5.365,0,0,1,.912-2.337,2.186,2.186,0,0,1,1.867-.971,1.522,1.522,0,0,1,1.29.576,1.841,1.841,0,0,1,.292,1.471h1.506l0.017-.043a2.691,2.691,0,0,0-.581-2.37,2.906,2.906,0,0,0-2.318-.967,4.084,4.084,0,0,0-3.127,1.294,6.147,6.147,0,0,0-1.527,3.351l-0.06.361a4.685,4.685,0,0,0,.516,3.312,2.9,2.9,0,0,0,2.658,1.342,4.114,4.114,0,0,0,2.581-.908,3.265,3.265,0,0,0,1.342-2.163l-0.017-.052h-1.489a1.971,1.971,0,0,1-.795,1.267,2.282,2.282,0,0,1-1.415.522A1.509,1.509,0,0,1,889.623,296.981Zm18.049-11.343h-1.66l-2.684,13.419h1.66Zm13.851,13.419a4.7,4.7,0,0,1,0-.9,8.662,8.662,0,0,1,.155-0.972l0.895-4.482a2.427,2.427,0,0,0-.512-2.3,2.921,2.921,0,0,0-2.189-.821,4.416,4.416,0,0,0-2.667.812,2.914,2.914,0,0,0-1.29,1.889l0.017,0.051h1.574a1.626,1.626,0,0,1,.7-0.993,2.168,2.168,0,0,1,1.307-.426,1.457,1.457,0,0,1,1.205.451,1.571,1.571,0,0,1,.189,1.321l-0.181.92h-1.591a5.307,5.307,0,0,0-2.878.71,3.089,3.089,0,0,0-1.4,2.129,2.351,2.351,0,0,0,.339,2.034,2.258,2.258,0,0,0,1.88.762,3.078,3.078,0,0,0,1.492-.409,5.325,5.325,0,0,0,1.321-1.019q-0.043.284-.06,0.555t-0.018.692h1.712Zm-4.886-1.578a1.192,1.192,0,0,1-.129-1,2,2,0,0,1,.809-1.2,2.439,2.439,0,0,1,1.531-.525h1.643l-0.344,1.712a3.376,3.376,0,0,1-1.118.955,2.891,2.891,0,0,1-1.42.4A1.177,1.177,0,0,1,916.637,297.479Zm18.948,0.057a2.284,2.284,0,0,1-1.32.368,1.894,1.894,0,0,1-1.256-.415,1.373,1.373,0,0,1-.387-1.314H931.03l-0.017.052a2.272,2.272,0,0,0,.6,2.1,3.162,3.162,0,0,0,2.443.912,4.356,4.356,0,0,0,2.581-.743,2.965,2.965,0,0,0,1.256-2.023,1.839,1.839,0,0,0-.525-1.739,5.114,5.114,0,0,0-2.288-1.026,3.1,3.1,0,0,1-1.346-.561,0.968,0.968,0,0,1-.2-0.88,1.531,1.531,0,0,1,.568-0.954,1.9,1.9,0,0,1,1.256-.4,1.324,1.324,0,0,1,1.411,1.583h1.591l0.026-.052a2.2,2.2,0,0,0-.568-2.021,2.941,2.941,0,0,0-2.254-.843,3.987,3.987,0,0,0-2.486.778,2.994,2.994,0,0,0-1.212,1.957,1.766,1.766,0,0,0,.529,1.72,5.178,5.178,0,0,0,2.232,1.007,2.941,2.941,0,0,1,1.359.617,1.041,1.041,0,0,1,.232.927A1.4,1.4,0,0,1,935.585,297.536Zm15.735,0A2.288,2.288,0,0,1,950,297.9a1.894,1.894,0,0,1-1.255-.415,1.375,1.375,0,0,1-.388-1.314h-1.591l-0.017.052a2.272,2.272,0,0,0,.6,2.1,3.162,3.162,0,0,0,2.443.912,4.356,4.356,0,0,0,2.581-.743,2.965,2.965,0,0,0,1.256-2.023,1.839,1.839,0,0,0-.525-1.739,5.114,5.114,0,0,0-2.288-1.026,3.113,3.113,0,0,1-1.347-.561,0.97,0.97,0,0,1-.2-0.88,1.531,1.531,0,0,1,.568-0.954,1.9,1.9,0,0,1,1.256-.4,1.324,1.324,0,0,1,1.411,1.583h1.591l0.026-.052a2.2,2.2,0,0,0-.568-2.021,2.942,2.942,0,0,0-2.254-.843,3.987,3.987,0,0,0-2.486.778,3,3,0,0,0-1.213,1.957,1.768,1.768,0,0,0,.529,1.72,5.188,5.188,0,0,0,2.233,1.007,2.941,2.941,0,0,1,1.359.617,1.041,1.041,0,0,1,.232.927A1.4,1.4,0,0,1,951.32,297.536ZM965.8,289.75h-1.661l-1.858,9.307h1.66Zm0.825-4.112h-1.66l-0.344,1.729h1.66Zm9.12,11.343a4.748,4.748,0,0,1-.12-2.4l0.06-.36a5.365,5.365,0,0,1,.912-2.337,2.184,2.184,0,0,1,1.866-.971,1.523,1.523,0,0,1,1.291.576,1.841,1.841,0,0,1,.292,1.471h1.506l0.017-.043a2.691,2.691,0,0,0-.581-2.37,2.906,2.906,0,0,0-2.318-.967,4.084,4.084,0,0,0-3.127,1.294,6.147,6.147,0,0,0-1.527,3.351l-0.06.361a4.685,4.685,0,0,0,.516,3.312,2.9,2.9,0,0,0,2.658,1.342,4.114,4.114,0,0,0,2.581-.908,3.265,3.265,0,0,0,1.342-2.163l-0.018-.052h-1.488a1.971,1.971,0,0,1-.8,1.267,2.284,2.284,0,0,1-1.415.522A1.509,1.509,0,0,1,975.74,296.981Zm25.35-2.4a4.626,4.626,0,0,0,.39,3.307,2.474,2.474,0,0,0,2.27,1.347,3.319,3.319,0,0,0,2.36-.938l-0.13.637a3.255,3.255,0,0,1-.92,1.8,2.39,2.39,0,0,1-1.72.649,4.243,4.243,0,0,1-1.15-.159,2.758,2.758,0,0,1-.93-0.417l-0.68,1.316a3.983,3.983,0,0,0,1.19.5,5.15,5.15,0,0,0,1.3.189,4.57,4.57,0,0,0,3.03-.976,4.942,4.942,0,0,0,1.55-2.9l1.83-9.187h-1.41l-0.36,1.118a2.619,2.619,0,0,0-.97-0.955,2.764,2.764,0,0,0-1.37-.335,3.435,3.435,0,0,0-2.71,1.217,7.738,7.738,0,0,0-1.53,3.608Zm1.7-.181a6.179,6.179,0,0,1,1-2.507,2.077,2.077,0,0,1,1.73-.942,1.839,1.839,0,0,1,1.12.335,2,2,0,0,1,.69.9l-0.87,4.335a3.411,3.411,0,0,1-.91.994,1.855,1.855,0,0,1-1.1.348,1.585,1.585,0,0,1-1.57-.9,3.818,3.818,0,0,1-.13-2.374Zm21.22,4.654a4.541,4.541,0,0,1,0-.9,7.9,7.9,0,0,1,.16-0.972l0.89-4.482a2.4,2.4,0,0,0-.51-2.3,2.934,2.934,0,0,0-2.19-.821,4.442,4.442,0,0,0-2.67.812,2.959,2.959,0,0,0-1.29,1.889l0.02,0.051h1.57a1.652,1.652,0,0,1,.7-0.993,2.179,2.179,0,0,1,1.31-.426,1.447,1.447,0,0,1,1.2.451,1.553,1.553,0,0,1,.19,1.321l-0.18.92h-1.59a5.316,5.316,0,0,0-2.88.71,3.108,3.108,0,0,0-1.4,2.129,2.391,2.391,0,0,0,.34,2.034,2.276,2.276,0,0,0,1.88.762,3.116,3.116,0,0,0,1.5-.409,5.55,5.55,0,0,0,1.32-1.019,5.463,5.463,0,0,0-.06.555c-0.01.18-.02,0.411-0.02,0.692h1.71Zm-4.88-1.578a1.157,1.157,0,0,1-.13-1,1.945,1.945,0,0,1,.81-1.2,2.427,2.427,0,0,1,1.53-.525h1.64l-0.34,1.712a3.457,3.457,0,0,1-1.12.955,2.9,2.9,0,0,1-1.42.4A1.162,1.162,0,0,1,1019.13,297.479Zm17.38-7.729h-1.48l-1.86,9.307h1.66l1.38-6.856a2.9,2.9,0,0,1,.89-0.916,2.1,2.1,0,0,1,1.17-.331,1.223,1.223,0,0,1,1.17.559,3.231,3.231,0,0,1,.03,1.961l-1.12,5.583h1.67l1.18-5.91V293.13a0.037,0.037,0,0,1,.01-0.026,3.641,3.641,0,0,1,.91-1.526,1.875,1.875,0,0,1,1.33-.624,1.24,1.24,0,0,1,1.18.52,3.256,3.256,0,0,1,.02,2l-1.12,5.583h1.67l1.11-5.566a4.153,4.153,0,0,0-.23-2.92,2.02,2.02,0,0,0-1.84-.993,3.224,3.224,0,0,0-1.67.443,4.112,4.112,0,0,0-1.31,1.234,2.025,2.025,0,0,0-.71-1.256,2.08,2.08,0,0,0-1.32-.421,3.665,3.665,0,0,0-1.57.331,3.722,3.722,0,0,0-1.26.95Zm23.73,9.16a4.3,4.3,0,0,0,1.34-.818l-0.47-1.1a4.063,4.063,0,0,1-2.58.915,1.609,1.609,0,0,1-1.54-.838,3.7,3.7,0,0,1-.26-2.258h5.61l0.17-1.06a4.29,4.29,0,0,0-.45-3.024,2.69,2.69,0,0,0-2.45-1.146,3.974,3.974,0,0,0-2.82,1.281,5.828,5.828,0,0,0-1.63,3.346l-0.06.379a4.505,4.505,0,0,0,.57,3.35,3.028,3.028,0,0,0,2.66,1.3A5.114,5.114,0,0,0,1060.24,298.91Zm0.49-7.35a2.6,2.6,0,0,1,.2,1.691l-0.04.223h-3.83l-0.02-.051a4.152,4.152,0,0,1,.97-1.79,1.924,1.924,0,0,1,1.39-.722A1.381,1.381,0,0,1,1060.73,291.56ZM796,295v-1h42v1H796Zm286,0v-1h42v1h-42Z" transform="translate(-574.281 -141.25)"/>
</svg>
