<?xml version="1.0" encoding="utf-8"?>
<!-- Generator: Adobe Illustrator 22.0.1, SVG Export Plug-In . SVG Version: 6.00 Build 0)  -->
<svg version="1.1" id="Layer_1" xmlns="http://www.w3.org/2000/svg" xmlns:xlink="http://www.w3.org/1999/xlink" x="0px" y="0px"
	 viewBox="0 0 112.8 165.5" style="enable-background:new 0 0 112.8 165.5;" xml:space="preserve">
<g>
	<path d="M59,46.2c-8.5,2.2-17.2-0.4-23.2-6.1c-1.9,2-3.5,5.3-3.8,8.1c-0.3,1.1-0.5,2.2-0.3,3.4v0c0,0.2,0.2,2,0.2,4.1
		c0,2.6-0.3,5.8-1,7.4c0,0.1-0.1,0.2-0.1,0.3c-0.8-0.2-2.3-0.7-4.4-2.1c-3.1-2-7.4-5.5-12.7-11c-3.1-3.2-8.1-3.2-11.3-0.1
		c-3.2,3.1-3.2,8.1-0.2,11.3c5.9,6.1,11,10.4,15.6,13.3c4.6,2.9,8.9,4.7,13.6,4.7c0.1,0,0.1,0,0.2,0c3.5,0,7.1-1.4,9.5-3.6
		c3.1-2.8,4.5-5.9,5.4-8.9c4.7,6.9,7.5,14.6,7.7,25.8l-18.6-6.7c-4.2-1.5-8.8-0.7-12.2,2.2c-3.4,2.8-5.1,7.3-4.3,11.7l9,54
		c1,6.1,6.3,10.4,12.3,10.4c0.7,0,1.4-0.1,2.1-0.2c6.8-1.1,11.4-7.6,10.3-14.4L47.2,117l4.8,1.7c0.7-1.3,1.6-2.5,2.6-3.5l26.6-25.7
		l1.6,1.2L56,116.7c-2.6,2.5-4,6.2-3.8,9.8s2.1,7.1,5,9.2l35.7,26.3c2.2,1.6,4.8,2.4,7.4,2.4c3.8,0,7.6-1.8,10.1-5.1
		c4.1-5.6,2.9-13.4-2.6-17.5v0L84,124.4l18.8-18.2l0.2-0.2c2.5-2.4,3.8-5.6,3.8-8.8c0,0,0,0,0,0c0-12.2-1.3-22.2-3.8-31.7
		c-0.4,1.1-0.8,2.2-1.3,3.3c-1.6,3.2-4.6,7.6-9.9,10.4c-3,1.6-6.5,2.4-10.1,2.4h0l-0.1,0c-5,0-10.2-1.5-15.6-4.5
		c-5.2-2.9-10.4-7-15.8-12.7c-3.8-4-3.8-10.3,0.2-14.1c1.9-1.8,4.4-2.8,7-2.8c2.7,0,5.3,1.1,7.2,3c5.1,5.2,8.9,7.9,11.3,9.2
		c3.2,1.8,5.1,2,5.8,2c0.7,0,0.9-0.1,1-0.2c0.1-0.1,0.3-0.2,0.6-0.6c0.7-0.9,1.4-3,1.4-5.5c0-1.8,0.5-3.5,1.4-5
		c0.4,1.6,0.6,3.2,0.6,4.7c0,0,0,0.1,0,0.3c0,3.1-0.9,5.5-1.8,6.7c-0.5,0.6-0.9,0.9-1.3,1.2c-0.5,0.2-1,0.4-1.9,0.4
		c-1.3,0-3.6-0.5-6.8-2.2c-3.2-1.8-7.2-4.8-11.7-9.5c-3.1-3.2-8.2-3.2-11.3-0.1c-3.2,3.1-3.2,8.1-0.2,11.3
		C57,68.4,62.1,72.5,67,75.2c4.9,2.7,9.8,4.3,14.6,4.3c0,0,0,0,0.1,0c3.2,0,6.4-0.8,9.2-2.2c4.2-2.1,7.2-5.7,9.1-9.5
		c1.9-3.9,2.7-8.1,2.8-12.4c0,0,0,0,0-0.1c0,0,0,0,0,0c0-0.1,0-0.2,0-0.4c0-2.1-0.2-4.2-0.6-6.3c-0.6-3.6-1.8-7.2-3.6-10.6
		c-2.8-5.4-7.1-10.5-12.9-14.2c-1-0.7-2.2-1-3.3-1.2c-1.6-0.6-3.3-1-5-1.2C77.7,32.8,70.3,43.3,59,46.2z"/>
	<ellipse cx="52.8" cy="22.5" rx="22.5" ry="22.5"/>
</g>
</svg>
