<?xml version="1.0" encoding="utf-8"?>
<!-- Generator: Adobe Illustrator 22.0.1, SVG Export Plug-In . SVG Version: 6.00 Build 0)  -->
<svg version="1.1" id="Layer_1" xmlns="http://www.w3.org/2000/svg" xmlns:xlink="http://www.w3.org/1999/xlink" x="0px" y="0px"
	 viewBox="0 0 37.1 37" style="enable-background:new 0 0 37.1 37;" xml:space="preserve">
<path d="M35.3,29.5L24,18.2L35.3,6.9c0.7-0.7,1.1-1.7,1.1-2.8c0-1-0.4-2-1.2-2.7c-1.5-1.5-3.9-1.5-5.4,0L18.5,12.7L7.2,1.4
	C6.4,0.7,5.5,0.3,4.4,0.3c-1,0-2,0.4-2.7,1.2C0.2,3,0.2,5.4,1.7,6.9L13,18.2L1.7,29.5c-0.7,0.7-1.2,1.7-1.2,2.7c0,1,0.4,2,1.1,2.8
	c0.7,0.7,1.7,1.2,2.7,1.2c0,0,0,0,0.1,0c1,0,2-0.4,2.7-1.1l11.4-11.4L29.8,35c0.7,0.7,1.7,1.1,2.8,1.1c1,0,2-0.4,2.7-1.2
	C36.7,33.4,36.7,31,35.3,29.5z"/>
</svg>
